<mxfile host="app.diagrams.net" modified="2024-01-31T08:36:27.200Z" agent="Mozilla/5.0 (Windows NT 10.0; Win64; x64) AppleWebKit/537.36 (KHTML, like Gecko) Chrome/121.0.0.0 Safari/537.36 Edg/121.0.0.0" version="23.0.2" etag="QZ09M5XZQiGUf97NGN3h" type="github">
  <diagram name="第 1 页" id="uZkTL7jz6rvbqRPXWUwu">
    <mxGraphModel>
      <root>
        <mxCell id="0" />
        <mxCell id="1" parent="0" />
      </root>
    </mxGraphModel>
  </diagram>
</mxfile>
